<?xml version="1.0" standalone="no"?>
<!DOCTYPE svg PUBLIC "-//W3C//DTD SVG 20010904//EN"
 "http://www.w3.org/TR/2001/REC-SVG-20010904/DTD/svg10.dtd">
<svg version="1.0" xmlns="http://www.w3.org/2000/svg"
 width="1600.000000pt" height="1600.000000pt" viewBox="0 0 1600.000000 1600.000000"
 preserveAspectRatio="xMidYMid meet">

<g transform="translate(0.000000,1600.000000) scale(0.100000,-0.100000)"
fill="#000000" stroke="none">
<path d="M0 8000 l0 -8000 8000 0 8000 0 0 8000 0 8000 -8000 0 -8000 0 0
-8000z m5881 4714 c75 -21 157 -92 190 -166 l24 -53 0 -530 0 -530 -24 -53
c-32 -71 -116 -147 -185 -167 -46 -13 -220 -15 -1422 -13 l-1369 3 -51 27
c-28 15 -70 48 -93 74 -71 81 -71 82 -71 658 0 342 4 524 11 551 25 88 100
164 192 196 49 17 132 18 1396 19 1207 0 1351 -2 1402 -16z m5494 -2242 c64
-31 111 -77 147 -145 l23 -42 3 -1124 c3 -1299 10 -1195 -91 -1296 -35 -34
-79 -67 -102 -75 -35 -13 -531 -15 -3781 -18 l-3741 -2 13 -83 c39 -260 155
-546 299 -738 113 -151 271 -288 413 -359 191 -94 239 -102 696 -109 l380 -6
73 -360 c40 -198 73 -367 73 -376 0 -34 -109 -41 -555 -36 -465 5 -500 9 -692
73 -210 70 -402 183 -577 339 -91 82 -106 97 -204 212 -135 158 -305 455 -386
674 -77 211 -135 450 -157 658 l-12 108 -63 6 c-91 9 -156 40 -214 104 -86 94
-81 7 -78 1284 l3 1124 23 42 c35 67 79 110 144 143 l61 30 4121 0 4121 0 60
-28z m1955 -657 l0 -435 -505 0 -505 0 0 435 0 435 505 0 505 0 0 -435z m-150
-1677 l0 -721 -91 -176 c-150 -288 -326 -626 -414 -791 -45 -85 -115 -218
-155 -295 -40 -77 -86 -164 -103 -194 l-30 -54 -86 7 c-47 3 -146 9 -218 12
-73 4 -133 10 -133 15 0 4 33 101 74 216 41 114 147 413 236 663 88 250 171
478 183 505 22 50 22 53 25 793 l2 742 355 0 355 0 0 -722z m-6633 -765 c65
-30 63 -11 63 -747 l0 -665 406 -3 406 -3 29 -33 c41 -46 41 -108 0 -150 -17
-16 -44 -32 -62 -36 -17 -3 -227 -6 -466 -6 -465 0 -482 2 -517 51 -14 21 -16
97 -16 780 l0 756 21 27 c37 47 80 56 136 29z m1358 1 c65 -30 65 -33 65 -617
0 -577 0 -581 63 -673 37 -56 116 -114 196 -145 69 -27 248 -37 333 -20 123
26 234 107 290 212 l23 44 5 565 c4 401 8 571 17 585 32 57 97 79 151 51 65
-33 63 -18 60 -639 l-4 -562 -26 -71 c-35 -95 -69 -147 -146 -222 -149 -145
-396 -209 -646 -168 -160 27 -276 82 -382 185 -61 59 -96 114 -133 210 l-26
66 -3 550 c-2 385 0 561 8 588 7 25 22 45 43 57 39 24 68 25 112 4z m2360 1
c217 -46 365 -219 365 -426 0 -106 -59 -221 -145 -281 -25 -18 -45 -35 -45
-39 0 -4 13 -10 30 -14 42 -9 143 -77 173 -117 132 -173 108 -446 -53 -608
-65 -65 -137 -106 -234 -133 -63 -18 -109 -21 -391 -25 -345 -4 -379 0 -414
45 -21 25 -21 34 -21 783 l0 757 21 27 c12 15 31 32 43 36 11 5 152 9 311 9
218 1 307 -3 360 -14z"/>
<path d="M3510 12479 c-183 -32 -337 -176 -394 -368 -25 -84 -21 -223 7 -314
95 -297 415 -438 693 -306 34 16 76 42 93 58 l31 29 0 181 c0 235 12 221 -188
221 -103 0 -153 -4 -164 -12 -27 -21 -30 -53 -9 -79 18 -22 28 -24 125 -27
l106 -4 0 -114 c0 -107 -1 -114 -23 -128 -73 -48 -211 -63 -302 -32 -198 67
-307 304 -237 516 83 246 372 346 568 195 52 -39 69 -42 102 -19 18 12 22 24
20 52 -3 31 -11 41 -66 79 -34 23 -85 49 -113 57 -67 20 -181 27 -249 15z"/>
<path d="M5434 12475 c-231 -42 -404 -260 -404 -509 0 -227 127 -415 335 -497
50 -19 78 -23 170 -23 101 0 116 3 185 32 129 55 171 104 140 163 -14 25 -64
25 -100 -1 -71 -51 -140 -73 -225 -73 -71 0 -92 4 -148 31 -136 63 -218 187
-225 342 -5 105 14 177 69 259 60 90 137 141 245 160 98 18 186 -2 275 -64 61
-42 72 -43 105 -10 18 18 23 32 19 48 -16 57 -146 130 -260 147 -85 12 -91 12
-181 -5z"/>
<path d="M4176 12448 c-14 -20 -16 -83 -16 -489 l0 -468 26 -20 c26 -20 38
-21 333 -21 345 0 354 2 359 62 6 66 -4 68 -315 68 l-273 0 2 163 3 162 210 6
c116 3 211 6 213 7 1 1 7 14 12 28 10 26 -1 61 -24 76 -6 4 -102 8 -213 8
l-203 0 0 160 0 160 278 0 c258 0 280 1 295 18 21 23 22 66 1 86 -13 14 -59
16 -344 16 -328 0 -329 0 -344 -22z"/>
<path d="M4795 10269 c-725 -92 -1355 -782 -1540 -1689 -46 -224 -68 -491 -58
-692 l6 -108 311 0 311 0 -3 172 c-4 196 8 326 45 483 71 302 213 567 408 760
142 141 299 235 482 286 73 21 102 23 476 26 218 2 397 7 397 10 0 3 32 162
70 354 39 192 70 360 70 373 0 19 -7 24 -37 30 -57 9 -858 5 -938 -5z"/>
<path d="M11104 10033 c8 -136 34 -443 42 -490 5 -33 5 -33 64 -33 47 0 60 3
60 15 0 9 9 105 20 213 10 108 20 245 22 305 l3 107 -109 0 -109 0 7 -117z"/>
<path d="M6250 9906 c-195 -42 -328 -255 -371 -592 -19 -153 -6 -482 24 -614
66 -289 189 -440 385 -473 166 -29 328 67 416 248 78 160 108 327 108 605 0
199 -12 306 -48 434 -63 223 -175 355 -333 392 -67 16 -108 16 -181 0z m185
-191 c77 -44 130 -159 156 -337 16 -108 16 -498 0 -607 -33 -226 -112 -356
-224 -368 -128 -15 -206 69 -258 277 -23 90 -24 112 -24 400 0 325 4 356 56
494 24 66 79 132 124 152 50 22 123 17 170 -11z"/>
<path d="M10392 9905 c-213 -46 -338 -242 -304 -474 23 -163 89 -241 338 -407
94 -62 188 -132 208 -155 116 -128 121 -331 10 -415 -128 -98 -297 -64 -445
89 l-50 52 -59 -62 c-33 -33 -60 -66 -60 -72 0 -21 74 -92 147 -141 169 -113
379 -128 539 -39 205 115 275 391 157 623 -39 77 -115 144 -306 270 -242 160
-282 210 -281 351 0 131 87 215 221 215 73 0 147 -33 224 -100 l56 -49 51 59
c29 32 52 63 52 69 0 17 -110 108 -170 140 -64 34 -165 61 -225 60 -22 0 -69
-7 -103 -14z"/>
<path d="M6950 9070 l0 -820 168 0 c206 0 263 10 370 62 197 96 311 308 343
631 21 228 -15 469 -96 633 -35 71 -61 106 -113 156 -129 125 -231 158 -494
158 l-178 0 0 -820z m418 628 c146 -55 228 -216 253 -499 26 -291 -35 -569
-150 -684 -70 -71 -114 -89 -223 -93 l-98 -4 0 649 c0 357 3 653 8 657 12 13
151 -4 210 -26z"/>
<path d="M8020 9070 l0 -820 400 0 400 0 0 85 0 85 -295 0 -295 0 0 300 0 300
238 2 237 3 0 85 0 85 -237 3 -238 2 0 260 0 260 285 0 285 0 0 85 0 85 -390
0 -390 0 0 -820z"/>
<path d="M9010 9070 l0 -820 100 0 100 0 2 348 3 347 77 3 c71 3 78 1 91 -20
8 -13 77 -170 153 -350 l138 -328 108 0 c107 0 107 0 99 23 -7 17 -110 252
-185 422 -78 174 -116 265 -116 274 0 6 19 20 43 32 139 70 221 205 234 384
14 203 -54 358 -194 441 -87 51 -174 64 -425 64 l-228 0 0 -820z m491 631 c65
-25 100 -58 131 -126 31 -69 32 -227 1 -296 -53 -119 -129 -160 -305 -167
l-118 -4 0 304 c0 168 3 308 8 313 15 15 225 -2 283 -24z"/>
<path d="M9750 6944 l0 -236 243 4 c221 3 246 5 287 24 87 41 130 110 130 208
0 77 -17 123 -60 165 -63 61 -116 71 -378 71 l-222 0 0 -236z"/>
<path d="M9750 6221 l0 -281 223 0 c242 0 329 10 396 43 87 44 141 137 141
247 0 115 -48 191 -149 239 -56 26 -58 26 -333 29 l-278 3 0 -280z"/>
</g>
</svg>
